<?xml version="1.0" encoding="UTF-8"?>
<!DOCTYPE svg PUBLIC "-//W3C//DTD SVG 1.1//EN" "http://www.w3.org/Graphics/SVG/1.1/DTD/svg11.dtd">
<!-- Creator: CorelDRAW -->
<svg xmlns="http://www.w3.org/2000/svg" xml:space="preserve" width="310mm" height="430mm" version="1.1" style="shape-rendering:geometricPrecision; text-rendering:geometricPrecision; image-rendering:optimizeQuality; fill-rule:evenodd; clip-rule:evenodd"
viewBox="0 0 31000 43000"
 xmlns:xlink="http://www.w3.org/1999/xlink"
 xmlns:xodm="http://www.corel.com/coreldraw/odm/2003">
 <defs>
  <style type="text/css">
   <![CDATA[
    .str0 {stroke:#EC268F;stroke-width:7.62;stroke-miterlimit:22.9256}
    .str1 {stroke:#EC268F;stroke-width:7.62;stroke-miterlimit:22.9256}
    .fil0 {fill:none}
   ]]>
  </style>
 </defs>
 <g id="Camada_x0020_1">
  <metadata id="CorelCorpID_0Corel-Layer"/>
  <g id="_1963085184912">
   <rect class="fil0 str0" x="3451.89" y="28333.23" width="7500" height="4000" rx="300" ry="300"/>
   <rect class="fil0 str0" x="11747.53" y="23861.93" width="7500" height="4000" rx="300" ry="300"/>
   <rect class="fil0 str1" x="1104.06" y="1659.84" width="3900" height="1000" rx="159.06" ry="170"/>
   <rect class="fil0 str1" x="5251.88" y="1659.84" width="3900" height="1000" rx="159.06" ry="170"/>
   <rect class="fil0 str1" x="9399.7" y="1659.84" width="3900" height="1000" rx="159.06" ry="170"/>
   <rect class="fil0 str1" x="13547.52" y="1659.84" width="3900" height="1000" rx="159.06" ry="170"/>
   <rect class="fil0 str1" x="17695.34" y="1659.84" width="3900" height="1000" rx="159.06" ry="170"/>
   <rect class="fil0 str1" x="21843.16" y="1659.84" width="3900" height="1000" rx="159.06" ry="170"/>
   <rect class="fil0 str1" x="25990.98" y="1659.84" width="3900" height="1000" rx="159.06" ry="170"/>
   <rect class="fil0 str1" x="1104.06" y="2883.71" width="3900" height="1000" rx="159.06" ry="170"/>
   <rect class="fil0 str1" x="1104.06" y="4107.58" width="3900" height="1000" rx="159.06" ry="170"/>
   <rect class="fil0 str1" x="1104.06" y="5331.45" width="3900" height="1000" rx="159.06" ry="170"/>
   <rect class="fil0 str1" x="1104.06" y="6555.32" width="3900" height="1000" rx="159.06" ry="170"/>
   <rect class="fil0 str1" x="1104.06" y="7779.19" width="3900" height="1000" rx="159.06" ry="170"/>
   <rect class="fil0 str1" x="1104.06" y="9003.06" width="3900" height="1000" rx="159.06" ry="170"/>
   <rect class="fil0 str1" x="1104.06" y="10226.93" width="3900" height="1000" rx="159.06" ry="170"/>
   <rect class="fil0 str1" x="1104.06" y="11450.8" width="3900" height="1000" rx="159.06" ry="170"/>
   <rect class="fil0 str1" x="1104.06" y="12674.67" width="3900" height="1000" rx="159.06" ry="170"/>
   <rect class="fil0 str1" x="1104.06" y="13898.54" width="3900" height="1000" rx="159.06" ry="170"/>
   <rect class="fil0 str1" x="1104.06" y="15122.41" width="3900" height="1000" rx="159.06" ry="170"/>
   <rect class="fil0 str1" x="1104.06" y="16346.28" width="3900" height="1000" rx="159.06" ry="170"/>
   <rect class="fil0 str1" x="1104.06" y="17570.15" width="3900" height="1000" rx="159.06" ry="170"/>
   <rect class="fil0 str1" x="1104.06" y="18794.02" width="3900" height="1000" rx="159.06" ry="170"/>
   <rect class="fil0 str1" x="1104.06" y="20017.89" width="3900" height="1000" rx="159.06" ry="170"/>
   <rect class="fil0 str1" x="1104.06" y="21241.76" width="3900" height="1000" rx="159.06" ry="170"/>
   <rect class="fil0 str1" x="1104.06" y="22465.63" width="3900" height="1000" rx="159.06" ry="170"/>
   <rect class="fil0 str1" x="5251.88" y="2883.71" width="3900" height="1000" rx="159.06" ry="170"/>
   <rect class="fil0 str1" x="5251.88" y="4107.58" width="3900" height="1000" rx="159.06" ry="170"/>
   <rect class="fil0 str1" x="5251.88" y="5331.45" width="3900" height="1000" rx="159.06" ry="170"/>
   <rect class="fil0 str1" x="5251.88" y="6555.32" width="3900" height="1000" rx="159.06" ry="170"/>
   <rect class="fil0 str1" x="5251.88" y="7779.19" width="3900" height="1000" rx="159.06" ry="170"/>
   <rect class="fil0 str1" x="5251.88" y="9003.06" width="3900" height="1000" rx="159.06" ry="170"/>
   <rect class="fil0 str1" x="5251.88" y="10226.93" width="3900" height="1000" rx="159.06" ry="170"/>
   <rect class="fil0 str1" x="5251.88" y="11450.8" width="3900" height="1000" rx="159.06" ry="170"/>
   <rect class="fil0 str1" x="5251.88" y="12674.67" width="3900" height="1000" rx="159.06" ry="170"/>
   <rect class="fil0 str1" x="5251.88" y="13898.54" width="3900" height="1000" rx="159.06" ry="170"/>
   <rect class="fil0 str1" x="5251.88" y="15122.41" width="3900" height="1000" rx="159.06" ry="170"/>
   <rect class="fil0 str1" x="5251.88" y="16346.28" width="3900" height="1000" rx="159.06" ry="170"/>
   <rect class="fil0 str1" x="5251.88" y="17570.15" width="3900" height="1000" rx="159.06" ry="170"/>
   <rect class="fil0 str1" x="5251.88" y="18794.02" width="3900" height="1000" rx="159.06" ry="170"/>
   <rect class="fil0 str1" x="5251.88" y="20017.89" width="3900" height="1000" rx="159.06" ry="170"/>
   <rect class="fil0 str1" x="5251.88" y="21241.76" width="3900" height="1000" rx="159.06" ry="170"/>
   <rect class="fil0 str1" x="5251.88" y="22465.63" width="3900" height="1000" rx="159.06" ry="170"/>
   <rect class="fil0 str1" x="9399.7" y="2883.71" width="3900" height="1000" rx="159.06" ry="170"/>
   <rect class="fil0 str1" x="9399.7" y="4107.58" width="3900" height="1000" rx="159.06" ry="170"/>
   <rect class="fil0 str1" x="9399.7" y="5331.45" width="3900" height="1000" rx="159.06" ry="170"/>
   <rect class="fil0 str1" x="9399.7" y="6555.32" width="3900" height="1000" rx="159.06" ry="170"/>
   <rect class="fil0 str1" x="9399.7" y="7779.19" width="3900" height="1000" rx="159.06" ry="170"/>
   <rect class="fil0 str1" x="9399.7" y="9003.06" width="3900" height="1000" rx="159.06" ry="170"/>
   <rect class="fil0 str1" x="9399.7" y="10226.93" width="3900" height="1000" rx="159.06" ry="170"/>
   <rect class="fil0 str1" x="9399.7" y="11450.8" width="3900" height="1000" rx="159.06" ry="170"/>
   <rect class="fil0 str1" x="9399.7" y="12674.67" width="3900" height="1000" rx="159.06" ry="170"/>
   <rect class="fil0 str1" x="9399.7" y="13898.54" width="3900" height="1000" rx="159.06" ry="170"/>
   <rect class="fil0 str1" x="9399.7" y="15122.41" width="3900" height="1000" rx="159.06" ry="170"/>
   <rect class="fil0 str1" x="9399.7" y="16346.28" width="3900" height="1000" rx="159.06" ry="170"/>
   <rect class="fil0 str1" x="9399.7" y="17570.15" width="3900" height="1000" rx="159.06" ry="170"/>
   <rect class="fil0 str1" x="9399.7" y="18794.02" width="3900" height="1000" rx="159.06" ry="170"/>
   <rect class="fil0 str1" x="9399.7" y="20017.89" width="3900" height="1000" rx="159.06" ry="170"/>
   <rect class="fil0 str1" x="9399.7" y="21241.76" width="3900" height="1000" rx="159.06" ry="170"/>
   <rect class="fil0 str1" x="9399.7" y="22465.63" width="3900" height="1000" rx="159.06" ry="170"/>
   <rect class="fil0 str1" x="13547.52" y="2883.71" width="3900" height="1000" rx="159.06" ry="170"/>
   <rect class="fil0 str1" x="13547.52" y="4107.58" width="3900" height="1000" rx="159.06" ry="170"/>
   <rect class="fil0 str1" x="13547.52" y="5331.45" width="3900" height="1000" rx="159.06" ry="170"/>
   <rect class="fil0 str1" x="13547.52" y="6555.32" width="3900" height="1000" rx="159.06" ry="170"/>
   <rect class="fil0 str1" x="13547.52" y="7779.19" width="3900" height="1000" rx="159.06" ry="170"/>
   <rect class="fil0 str1" x="13547.52" y="9003.06" width="3900" height="1000" rx="159.06" ry="170"/>
   <rect class="fil0 str1" x="13547.52" y="10226.93" width="3900" height="1000" rx="159.06" ry="170"/>
   <rect class="fil0 str1" x="13547.52" y="11450.8" width="3900" height="1000" rx="159.06" ry="170"/>
   <rect class="fil0 str1" x="13547.52" y="12674.67" width="3900" height="1000" rx="159.06" ry="170"/>
   <rect class="fil0 str1" x="13547.52" y="13898.54" width="3900" height="1000" rx="159.06" ry="170"/>
   <rect class="fil0 str1" x="13547.52" y="15122.41" width="3900" height="1000" rx="159.06" ry="170"/>
   <rect class="fil0 str1" x="13547.52" y="16346.28" width="3900" height="1000" rx="159.06" ry="170"/>
   <rect class="fil0 str1" x="13547.52" y="17570.15" width="3900" height="1000" rx="159.06" ry="170"/>
   <rect class="fil0 str1" x="13547.52" y="18794.02" width="3900" height="1000" rx="159.06" ry="170"/>
   <rect class="fil0 str1" x="13547.52" y="20017.89" width="3900" height="1000" rx="159.06" ry="170"/>
   <rect class="fil0 str1" x="13547.52" y="21241.76" width="3900" height="1000" rx="159.06" ry="170"/>
   <rect class="fil0 str1" x="13547.52" y="22465.63" width="3900" height="1000" rx="159.06" ry="170"/>
   <rect class="fil0 str1" x="17695.34" y="2883.71" width="3900" height="1000" rx="159.06" ry="170"/>
   <rect class="fil0 str1" x="17695.34" y="4107.58" width="3900" height="1000" rx="159.06" ry="170"/>
   <rect class="fil0 str1" x="17695.34" y="5331.45" width="3900" height="1000" rx="159.06" ry="170"/>
   <rect class="fil0 str1" x="17695.34" y="6555.32" width="3900" height="1000" rx="159.06" ry="170"/>
   <rect class="fil0 str1" x="17695.34" y="7779.19" width="3900" height="1000" rx="159.06" ry="170"/>
   <rect class="fil0 str1" x="17695.34" y="9003.06" width="3900" height="1000" rx="159.06" ry="170"/>
   <rect class="fil0 str1" x="17695.34" y="10226.93" width="3900" height="1000" rx="159.06" ry="170"/>
   <rect class="fil0 str1" x="17695.34" y="11450.8" width="3900" height="1000" rx="159.06" ry="170"/>
   <rect class="fil0 str1" x="17695.34" y="12674.67" width="3900" height="1000" rx="159.06" ry="170"/>
   <rect class="fil0 str1" x="17695.34" y="13898.54" width="3900" height="1000" rx="159.06" ry="170"/>
   <rect class="fil0 str1" x="17695.34" y="15122.41" width="3900" height="1000" rx="159.06" ry="170"/>
   <rect class="fil0 str1" x="17695.34" y="16346.28" width="3900" height="1000" rx="159.06" ry="170"/>
   <rect class="fil0 str1" x="17695.34" y="17570.15" width="3900" height="1000" rx="159.06" ry="170"/>
   <rect class="fil0 str1" x="17695.34" y="18794.02" width="3900" height="1000" rx="159.06" ry="170"/>
   <rect class="fil0 str1" x="17695.34" y="20017.89" width="3900" height="1000" rx="159.06" ry="170"/>
   <rect class="fil0 str1" x="17695.34" y="21241.76" width="3900" height="1000" rx="159.06" ry="170"/>
   <rect class="fil0 str1" x="17695.34" y="22465.63" width="3900" height="1000" rx="159.06" ry="170"/>
   <rect class="fil0 str1" x="21843.16" y="2883.71" width="3900" height="1000" rx="159.06" ry="170"/>
   <rect class="fil0 str1" x="21843.16" y="4107.58" width="3900" height="1000" rx="159.06" ry="170"/>
   <rect class="fil0 str1" x="21843.16" y="5331.45" width="3900" height="1000" rx="159.06" ry="170"/>
   <rect class="fil0 str1" x="21843.16" y="6555.32" width="3900" height="1000" rx="159.06" ry="170"/>
   <rect class="fil0 str1" x="21843.16" y="7779.19" width="3900" height="1000" rx="159.06" ry="170"/>
   <rect class="fil0 str1" x="21843.16" y="9003.06" width="3900" height="1000" rx="159.06" ry="170"/>
   <rect class="fil0 str1" x="21843.16" y="10226.93" width="3900" height="1000" rx="159.06" ry="170"/>
   <rect class="fil0 str1" x="21843.16" y="11450.8" width="3900" height="1000" rx="159.06" ry="170"/>
   <rect class="fil0 str1" x="21843.16" y="12674.67" width="3900" height="1000" rx="159.06" ry="170"/>
   <rect class="fil0 str1" x="21843.16" y="13898.54" width="3900" height="1000" rx="159.06" ry="170"/>
   <rect class="fil0 str1" x="21843.16" y="15122.41" width="3900" height="1000" rx="159.06" ry="170"/>
   <rect class="fil0 str1" x="21843.16" y="16346.28" width="3900" height="1000" rx="159.06" ry="170"/>
   <rect class="fil0 str1" x="21843.16" y="17570.15" width="3900" height="1000" rx="159.06" ry="170"/>
   <rect class="fil0 str1" x="21843.16" y="18794.02" width="3900" height="1000" rx="159.06" ry="170"/>
   <rect class="fil0 str1" x="21843.16" y="20017.89" width="3900" height="1000" rx="159.06" ry="170"/>
   <rect class="fil0 str1" x="21843.16" y="21241.76" width="3900" height="1000" rx="159.06" ry="170"/>
   <rect class="fil0 str1" x="21843.16" y="22465.63" width="3900" height="1000" rx="159.06" ry="170"/>
   <rect class="fil0 str1" x="25990.98" y="2883.71" width="3900" height="1000" rx="159.06" ry="170"/>
   <rect class="fil0 str1" x="25990.98" y="4107.58" width="3900" height="1000" rx="159.06" ry="170"/>
   <rect class="fil0 str1" x="25990.98" y="5331.45" width="3900" height="1000" rx="159.06" ry="170"/>
   <rect class="fil0 str1" x="25990.98" y="6555.32" width="3900" height="1000" rx="159.06" ry="170"/>
   <rect class="fil0 str1" x="25990.98" y="7779.19" width="3900" height="1000" rx="159.06" ry="170"/>
   <rect class="fil0 str1" x="25990.98" y="9003.06" width="3900" height="1000" rx="159.06" ry="170"/>
   <rect class="fil0 str1" x="25990.98" y="10226.93" width="3900" height="1000" rx="159.06" ry="170"/>
   <rect class="fil0 str1" x="25990.98" y="11450.8" width="3900" height="1000" rx="159.06" ry="170"/>
   <rect class="fil0 str1" x="25990.98" y="12674.67" width="3900" height="1000" rx="159.06" ry="170"/>
   <rect class="fil0 str1" x="25990.98" y="13898.54" width="3900" height="1000" rx="159.06" ry="170"/>
   <rect class="fil0 str1" x="25990.98" y="15122.41" width="3900" height="1000" rx="159.06" ry="170"/>
   <rect class="fil0 str1" x="25990.98" y="16346.28" width="3900" height="1000" rx="159.06" ry="170"/>
   <rect class="fil0 str1" x="25990.98" y="17570.15" width="3900" height="1000" rx="159.06" ry="170"/>
   <rect class="fil0 str1" x="25990.98" y="18794.02" width="3900" height="1000" rx="159.06" ry="170"/>
   <rect class="fil0 str1" x="25990.98" y="20017.89" width="3900" height="1000" rx="159.06" ry="170"/>
   <rect class="fil0 str1" x="25990.98" y="21241.76" width="3900" height="1000" rx="159.06" ry="170"/>
   <rect class="fil0 str1" x="25990.98" y="22465.63" width="3900" height="1000" rx="159.06" ry="170"/>
   <rect class="fil0 str0" x="3451.89" y="23861.93" width="7500" height="4000" rx="300" ry="300"/>
   <rect class="fil0 str0" x="20043.17" y="23861.93" width="7500" height="4000" rx="300" ry="300"/>
   <rect class="fil0 str0" x="11747.53" y="28333.23" width="7500" height="4000" rx="300" ry="300"/>
   <rect class="fil0 str0" x="11747.53" y="32804.53" width="7500" height="4000" rx="300" ry="300"/>
   <rect class="fil0 str0" x="11747.53" y="37275.83" width="7500" height="4000" rx="300" ry="300"/>
   <rect class="fil0 str0" x="3451.89" y="32804.53" width="7500" height="4000" rx="300" ry="300"/>
   <rect class="fil0 str0" x="3451.89" y="37275.83" width="7500" height="4000" rx="300" ry="300"/>
   <rect class="fil0 str0" x="20043.17" y="28333.23" width="7500" height="4000" rx="300" ry="300"/>
   <rect class="fil0 str0" x="20043.17" y="32804.53" width="7500" height="4000" rx="300" ry="300"/>
   <rect class="fil0 str0" x="20043.17" y="37275.83" width="7500" height="4000" rx="300" ry="300"/>
  </g>
 </g>
</svg>
