<?xml version="1.0" encoding="UTF-8"?>
<!DOCTYPE svg PUBLIC "-//W3C//DTD SVG 1.1//EN" "http://www.w3.org/Graphics/SVG/1.1/DTD/svg11.dtd">
<!-- Creator: CorelDRAW -->
<svg xmlns="http://www.w3.org/2000/svg" xml:space="preserve" width="310mm" height="430mm" version="1.1" style="shape-rendering:geometricPrecision; text-rendering:geometricPrecision; image-rendering:optimizeQuality; fill-rule:evenodd; clip-rule:evenodd"
viewBox="0 0 31000 43000"
 xmlns:xlink="http://www.w3.org/1999/xlink"
 xmlns:xodm="http://www.corel.com/coreldraw/odm/2003">
 <defs>
  <style type="text/css">
   <![CDATA[
    .str0 {stroke:#EC268F;stroke-width:7.62;stroke-miterlimit:22.9256}
    .fil0 {fill:none}
   ]]>
  </style>
 </defs>
 <g id="Camada_x0020_1">
  <metadata id="CorelCorpID_0Corel-Layer"/>
  <rect class="fil0 str0" x="3451.89" y="28447.93" width="7500" height="4000" rx="300" ry="300"/>
  <rect class="fil0 str0" x="11747.53" y="23976.63" width="7500" height="4000" rx="300" ry="300"/>
  <rect class="fil0 str0" x="3451.89" y="23976.63" width="7500" height="4000" rx="300" ry="300"/>
  <rect class="fil0 str0" x="20043.17" y="23976.63" width="7500" height="4000" rx="300" ry="300"/>
  <rect class="fil0 str0" x="11747.53" y="28447.93" width="7500" height="4000" rx="300" ry="300"/>
  <rect class="fil0 str0" x="11747.53" y="32919.23" width="7500" height="4000" rx="300" ry="300"/>
  <rect class="fil0 str0" x="11747.53" y="37390.53" width="7500" height="4000" rx="300" ry="300"/>
  <rect class="fil0 str0" x="3451.89" y="32919.23" width="7500" height="4000" rx="300" ry="300"/>
  <rect class="fil0 str0" x="3451.89" y="37390.53" width="7500" height="4000" rx="300" ry="300"/>
  <rect class="fil0 str0" x="20043.17" y="28447.93" width="7500" height="4000" rx="300" ry="300"/>
  <rect class="fil0 str0" x="20043.17" y="32919.23" width="7500" height="4000" rx="300" ry="300"/>
  <rect class="fil0 str0" x="20043.17" y="37390.53" width="7500" height="4000" rx="300" ry="300"/>
  <rect class="fil0 str0" x="3451.89" y="19505.33" width="7500" height="4000" rx="300" ry="300"/>
  <rect class="fil0 str0" x="11747.53" y="19505.33" width="7500" height="4000" rx="300" ry="300"/>
  <rect class="fil0 str0" x="20043.17" y="19505.33" width="7500" height="4000" rx="300" ry="300"/>
  <rect class="fil0 str0" x="11747.53" y="15034.03" width="7500" height="4000" rx="300" ry="300"/>
  <rect class="fil0 str0" x="3451.89" y="15034.03" width="7500" height="4000" rx="300" ry="300"/>
  <rect class="fil0 str0" x="20043.17" y="15034.03" width="7500" height="4000" rx="300" ry="300"/>
  <rect class="fil0 str0" x="11747.53" y="10562.73" width="7500" height="4000" rx="300" ry="300"/>
  <rect class="fil0 str0" x="3451.89" y="10562.73" width="7500" height="4000" rx="300" ry="300"/>
  <rect class="fil0 str0" x="20043.17" y="10562.73" width="7500" height="4000" rx="300" ry="300"/>
  <rect class="fil0 str0" x="11747.53" y="6091.43" width="7500" height="4000" rx="300" ry="300"/>
  <rect class="fil0 str0" x="3451.89" y="6091.43" width="7500" height="4000" rx="300" ry="300"/>
  <rect class="fil0 str0" x="20043.17" y="6091.43" width="7500" height="4000" rx="300" ry="300"/>
  <rect class="fil0 str0" x="11747.53" y="1620.13" width="7500" height="4000" rx="300" ry="300"/>
  <rect class="fil0 str0" x="3451.89" y="1620.13" width="7500" height="4000" rx="300" ry="300"/>
  <rect class="fil0 str0" x="20043.17" y="1620.13" width="7500" height="4000" rx="300" ry="300"/>
 </g>
</svg>
