<?xml version="1.0" encoding="UTF-8"?>
<!DOCTYPE svg PUBLIC "-//W3C//DTD SVG 1.1//EN" "http://www.w3.org/Graphics/SVG/1.1/DTD/svg11.dtd">
<!-- Creator: CorelDRAW -->
<svg xmlns="http://www.w3.org/2000/svg" xml:space="preserve" width="310mm" height="430mm" version="1.1" style="shape-rendering:geometricPrecision; text-rendering:geometricPrecision; image-rendering:optimizeQuality; fill-rule:evenodd; clip-rule:evenodd"
viewBox="0 0 31000 43000"
 xmlns:xlink="http://www.w3.org/1999/xlink"
 xmlns:xodm="http://www.corel.com/coreldraw/odm/2003">
 <defs>
  <style type="text/css">
   <![CDATA[
    .str0 {stroke:#EC268F;stroke-width:7.62;stroke-miterlimit:22.9256}
    .fil0 {fill:none}
   ]]>
  </style>
 </defs>
 <g id="Camada_x0020_1">
  <metadata id="CorelCorpID_0Corel-Layer"/>
  <g id="_1963092091120">
   <rect class="fil0 str0" x="1104.06" y="1423.4" width="3900" height="1000" rx="159.06" ry="170"/>
   <rect class="fil0 str0" x="5251.88" y="1423.4" width="3900" height="1000" rx="159.06" ry="170"/>
   <rect class="fil0 str0" x="9399.7" y="1423.4" width="3900" height="1000" rx="159.06" ry="170"/>
   <rect class="fil0 str0" x="13547.52" y="1423.4" width="3900" height="1000" rx="159.06" ry="170"/>
   <rect class="fil0 str0" x="17695.34" y="1423.4" width="3900" height="1000" rx="159.06" ry="170"/>
   <rect class="fil0 str0" x="21843.16" y="1423.4" width="3900" height="1000" rx="159.06" ry="170"/>
   <rect class="fil0 str0" x="25990.98" y="1423.4" width="3900" height="1000" rx="159.06" ry="170"/>
   <rect class="fil0 str0" x="1104.06" y="2647.27" width="3900" height="1000" rx="159.06" ry="170"/>
   <rect class="fil0 str0" x="1104.06" y="3871.14" width="3900" height="1000" rx="159.06" ry="170"/>
   <rect class="fil0 str0" x="1104.06" y="5095.01" width="3900" height="1000" rx="159.06" ry="170"/>
   <rect class="fil0 str0" x="1104.06" y="6318.88" width="3900" height="1000" rx="159.06" ry="170"/>
   <rect class="fil0 str0" x="1104.06" y="7542.75" width="3900" height="1000" rx="159.06" ry="170"/>
   <rect class="fil0 str0" x="1104.06" y="8766.62" width="3900" height="1000" rx="159.06" ry="170"/>
   <rect class="fil0 str0" x="1104.06" y="9990.49" width="3900" height="1000" rx="159.06" ry="170"/>
   <rect class="fil0 str0" x="1104.06" y="11214.36" width="3900" height="1000" rx="159.06" ry="170"/>
   <rect class="fil0 str0" x="1104.06" y="12438.23" width="3900" height="1000" rx="159.06" ry="170"/>
   <rect class="fil0 str0" x="1104.06" y="13662.1" width="3900" height="1000" rx="159.06" ry="170"/>
   <rect class="fil0 str0" x="1104.06" y="14885.97" width="3900" height="1000" rx="159.06" ry="170"/>
   <rect class="fil0 str0" x="1104.06" y="16109.84" width="3900" height="1000" rx="159.06" ry="170"/>
   <rect class="fil0 str0" x="1104.06" y="17333.71" width="3900" height="1000" rx="159.06" ry="170"/>
   <rect class="fil0 str0" x="1104.06" y="18557.58" width="3900" height="1000" rx="159.06" ry="170"/>
   <rect class="fil0 str0" x="1104.06" y="19781.45" width="3900" height="1000" rx="159.06" ry="170"/>
   <rect class="fil0 str0" x="1104.06" y="21005.32" width="3900" height="1000" rx="159.06" ry="170"/>
   <rect class="fil0 str0" x="1104.06" y="22229.19" width="3900" height="1000" rx="159.06" ry="170"/>
   <rect class="fil0 str0" x="5251.88" y="2647.27" width="3900" height="1000" rx="159.06" ry="170"/>
   <rect class="fil0 str0" x="5251.88" y="3871.14" width="3900" height="1000" rx="159.06" ry="170"/>
   <rect class="fil0 str0" x="5251.88" y="5095.01" width="3900" height="1000" rx="159.06" ry="170"/>
   <rect class="fil0 str0" x="5251.88" y="6318.88" width="3900" height="1000" rx="159.06" ry="170"/>
   <rect class="fil0 str0" x="5251.88" y="7542.75" width="3900" height="1000" rx="159.06" ry="170"/>
   <rect class="fil0 str0" x="5251.88" y="8766.62" width="3900" height="1000" rx="159.06" ry="170"/>
   <rect class="fil0 str0" x="5251.88" y="9990.49" width="3900" height="1000" rx="159.06" ry="170"/>
   <rect class="fil0 str0" x="5251.88" y="11214.36" width="3900" height="1000" rx="159.06" ry="170"/>
   <rect class="fil0 str0" x="5251.88" y="12438.23" width="3900" height="1000" rx="159.06" ry="170"/>
   <rect class="fil0 str0" x="5251.88" y="13662.1" width="3900" height="1000" rx="159.06" ry="170"/>
   <rect class="fil0 str0" x="5251.88" y="14885.97" width="3900" height="1000" rx="159.06" ry="170"/>
   <rect class="fil0 str0" x="5251.88" y="16109.84" width="3900" height="1000" rx="159.06" ry="170"/>
   <rect class="fil0 str0" x="5251.88" y="17333.71" width="3900" height="1000" rx="159.06" ry="170"/>
   <rect class="fil0 str0" x="5251.88" y="18557.58" width="3900" height="1000" rx="159.06" ry="170"/>
   <rect class="fil0 str0" x="5251.88" y="19781.45" width="3900" height="1000" rx="159.06" ry="170"/>
   <rect class="fil0 str0" x="5251.88" y="21005.32" width="3900" height="1000" rx="159.06" ry="170"/>
   <rect class="fil0 str0" x="5251.88" y="22229.19" width="3900" height="1000" rx="159.06" ry="170"/>
   <rect class="fil0 str0" x="9399.7" y="2647.27" width="3900" height="1000" rx="159.06" ry="170"/>
   <rect class="fil0 str0" x="9399.7" y="3871.14" width="3900" height="1000" rx="159.06" ry="170"/>
   <rect class="fil0 str0" x="9399.7" y="5095.01" width="3900" height="1000" rx="159.06" ry="170"/>
   <rect class="fil0 str0" x="9399.7" y="6318.88" width="3900" height="1000" rx="159.06" ry="170"/>
   <rect class="fil0 str0" x="9399.7" y="7542.75" width="3900" height="1000" rx="159.06" ry="170"/>
   <rect class="fil0 str0" x="9399.7" y="8766.62" width="3900" height="1000" rx="159.06" ry="170"/>
   <rect class="fil0 str0" x="9399.7" y="9990.49" width="3900" height="1000" rx="159.06" ry="170"/>
   <rect class="fil0 str0" x="9399.7" y="11214.36" width="3900" height="1000" rx="159.06" ry="170"/>
   <rect class="fil0 str0" x="9399.7" y="12438.23" width="3900" height="1000" rx="159.06" ry="170"/>
   <rect class="fil0 str0" x="9399.7" y="13662.1" width="3900" height="1000" rx="159.06" ry="170"/>
   <rect class="fil0 str0" x="9399.7" y="14885.97" width="3900" height="1000" rx="159.06" ry="170"/>
   <rect class="fil0 str0" x="9399.7" y="16109.84" width="3900" height="1000" rx="159.06" ry="170"/>
   <rect class="fil0 str0" x="9399.7" y="17333.71" width="3900" height="1000" rx="159.06" ry="170"/>
   <rect class="fil0 str0" x="9399.7" y="18557.58" width="3900" height="1000" rx="159.06" ry="170"/>
   <rect class="fil0 str0" x="9399.7" y="19781.45" width="3900" height="1000" rx="159.06" ry="170"/>
   <rect class="fil0 str0" x="9399.7" y="21005.32" width="3900" height="1000" rx="159.06" ry="170"/>
   <rect class="fil0 str0" x="9399.7" y="22229.19" width="3900" height="1000" rx="159.06" ry="170"/>
   <rect class="fil0 str0" x="13547.52" y="2647.27" width="3900" height="1000" rx="159.06" ry="170"/>
   <rect class="fil0 str0" x="13547.52" y="3871.14" width="3900" height="1000" rx="159.06" ry="170"/>
   <rect class="fil0 str0" x="13547.52" y="5095.01" width="3900" height="1000" rx="159.06" ry="170"/>
   <rect class="fil0 str0" x="13547.52" y="6318.88" width="3900" height="1000" rx="159.06" ry="170"/>
   <rect class="fil0 str0" x="13547.52" y="7542.75" width="3900" height="1000" rx="159.06" ry="170"/>
   <rect class="fil0 str0" x="13547.52" y="8766.62" width="3900" height="1000" rx="159.06" ry="170"/>
   <rect class="fil0 str0" x="13547.52" y="9990.49" width="3900" height="1000" rx="159.06" ry="170"/>
   <rect class="fil0 str0" x="13547.52" y="11214.36" width="3900" height="1000" rx="159.06" ry="170"/>
   <rect class="fil0 str0" x="13547.52" y="12438.23" width="3900" height="1000" rx="159.06" ry="170"/>
   <rect class="fil0 str0" x="13547.52" y="13662.1" width="3900" height="1000" rx="159.06" ry="170"/>
   <rect class="fil0 str0" x="13547.52" y="14885.97" width="3900" height="1000" rx="159.06" ry="170"/>
   <rect class="fil0 str0" x="13547.52" y="16109.84" width="3900" height="1000" rx="159.06" ry="170"/>
   <rect class="fil0 str0" x="13547.52" y="17333.71" width="3900" height="1000" rx="159.06" ry="170"/>
   <rect class="fil0 str0" x="13547.52" y="18557.58" width="3900" height="1000" rx="159.06" ry="170"/>
   <rect class="fil0 str0" x="13547.52" y="19781.45" width="3900" height="1000" rx="159.06" ry="170"/>
   <rect class="fil0 str0" x="13547.52" y="21005.32" width="3900" height="1000" rx="159.06" ry="170"/>
   <rect class="fil0 str0" x="13547.52" y="22229.19" width="3900" height="1000" rx="159.06" ry="170"/>
   <rect class="fil0 str0" x="17695.34" y="2647.27" width="3900" height="1000" rx="159.06" ry="170"/>
   <rect class="fil0 str0" x="17695.34" y="3871.14" width="3900" height="1000" rx="159.06" ry="170"/>
   <rect class="fil0 str0" x="17695.34" y="5095.01" width="3900" height="1000" rx="159.06" ry="170"/>
   <rect class="fil0 str0" x="17695.34" y="6318.88" width="3900" height="1000" rx="159.06" ry="170"/>
   <rect class="fil0 str0" x="17695.34" y="7542.75" width="3900" height="1000" rx="159.06" ry="170"/>
   <rect class="fil0 str0" x="17695.34" y="8766.62" width="3900" height="1000" rx="159.06" ry="170"/>
   <rect class="fil0 str0" x="17695.34" y="9990.49" width="3900" height="1000" rx="159.06" ry="170"/>
   <rect class="fil0 str0" x="17695.34" y="11214.36" width="3900" height="1000" rx="159.06" ry="170"/>
   <rect class="fil0 str0" x="17695.34" y="12438.23" width="3900" height="1000" rx="159.06" ry="170"/>
   <rect class="fil0 str0" x="17695.34" y="13662.1" width="3900" height="1000" rx="159.06" ry="170"/>
   <rect class="fil0 str0" x="17695.34" y="14885.97" width="3900" height="1000" rx="159.06" ry="170"/>
   <rect class="fil0 str0" x="17695.34" y="16109.84" width="3900" height="1000" rx="159.06" ry="170"/>
   <rect class="fil0 str0" x="17695.34" y="17333.71" width="3900" height="1000" rx="159.06" ry="170"/>
   <rect class="fil0 str0" x="17695.34" y="18557.58" width="3900" height="1000" rx="159.06" ry="170"/>
   <rect class="fil0 str0" x="17695.34" y="19781.45" width="3900" height="1000" rx="159.06" ry="170"/>
   <rect class="fil0 str0" x="17695.34" y="21005.32" width="3900" height="1000" rx="159.06" ry="170"/>
   <rect class="fil0 str0" x="17695.34" y="22229.19" width="3900" height="1000" rx="159.06" ry="170"/>
   <rect class="fil0 str0" x="21843.16" y="2647.27" width="3900" height="1000" rx="159.06" ry="170"/>
   <rect class="fil0 str0" x="21843.16" y="3871.14" width="3900" height="1000" rx="159.06" ry="170"/>
   <rect class="fil0 str0" x="21843.16" y="5095.01" width="3900" height="1000" rx="159.06" ry="170"/>
   <rect class="fil0 str0" x="21843.16" y="6318.88" width="3900" height="1000" rx="159.06" ry="170"/>
   <rect class="fil0 str0" x="21843.16" y="7542.75" width="3900" height="1000" rx="159.06" ry="170"/>
   <rect class="fil0 str0" x="21843.16" y="8766.62" width="3900" height="1000" rx="159.06" ry="170"/>
   <rect class="fil0 str0" x="21843.16" y="9990.49" width="3900" height="1000" rx="159.06" ry="170"/>
   <rect class="fil0 str0" x="21843.16" y="11214.36" width="3900" height="1000" rx="159.06" ry="170"/>
   <rect class="fil0 str0" x="21843.16" y="12438.23" width="3900" height="1000" rx="159.06" ry="170"/>
   <rect class="fil0 str0" x="21843.16" y="13662.1" width="3900" height="1000" rx="159.06" ry="170"/>
   <rect class="fil0 str0" x="21843.16" y="14885.97" width="3900" height="1000" rx="159.06" ry="170"/>
   <rect class="fil0 str0" x="21843.16" y="16109.84" width="3900" height="1000" rx="159.06" ry="170"/>
   <rect class="fil0 str0" x="21843.16" y="17333.71" width="3900" height="1000" rx="159.06" ry="170"/>
   <rect class="fil0 str0" x="21843.16" y="18557.58" width="3900" height="1000" rx="159.06" ry="170"/>
   <rect class="fil0 str0" x="21843.16" y="19781.45" width="3900" height="1000" rx="159.06" ry="170"/>
   <rect class="fil0 str0" x="21843.16" y="21005.32" width="3900" height="1000" rx="159.06" ry="170"/>
   <rect class="fil0 str0" x="21843.16" y="22229.19" width="3900" height="1000" rx="159.06" ry="170"/>
   <rect class="fil0 str0" x="25990.98" y="2647.27" width="3900" height="1000" rx="159.06" ry="170"/>
   <rect class="fil0 str0" x="25990.98" y="3871.14" width="3900" height="1000" rx="159.06" ry="170"/>
   <rect class="fil0 str0" x="25990.98" y="5095.01" width="3900" height="1000" rx="159.06" ry="170"/>
   <rect class="fil0 str0" x="25990.98" y="6318.88" width="3900" height="1000" rx="159.06" ry="170"/>
   <rect class="fil0 str0" x="25990.98" y="7542.75" width="3900" height="1000" rx="159.06" ry="170"/>
   <rect class="fil0 str0" x="25990.98" y="8766.62" width="3900" height="1000" rx="159.06" ry="170"/>
   <rect class="fil0 str0" x="25990.98" y="9990.49" width="3900" height="1000" rx="159.06" ry="170"/>
   <rect class="fil0 str0" x="25990.98" y="11214.36" width="3900" height="1000" rx="159.06" ry="170"/>
   <rect class="fil0 str0" x="25990.98" y="12438.23" width="3900" height="1000" rx="159.06" ry="170"/>
   <rect class="fil0 str0" x="25990.98" y="13662.1" width="3900" height="1000" rx="159.06" ry="170"/>
   <rect class="fil0 str0" x="25990.98" y="14885.97" width="3900" height="1000" rx="159.06" ry="170"/>
   <rect class="fil0 str0" x="25990.98" y="16109.84" width="3900" height="1000" rx="159.06" ry="170"/>
   <rect class="fil0 str0" x="25990.98" y="17333.71" width="3900" height="1000" rx="159.06" ry="170"/>
   <rect class="fil0 str0" x="25990.98" y="18557.58" width="3900" height="1000" rx="159.06" ry="170"/>
   <rect class="fil0 str0" x="25990.98" y="19781.45" width="3900" height="1000" rx="159.06" ry="170"/>
   <rect class="fil0 str0" x="25990.98" y="21005.32" width="3900" height="1000" rx="159.06" ry="170"/>
   <rect class="fil0 str0" x="25990.98" y="22229.19" width="3900" height="1000" rx="159.06" ry="170"/>
   <rect class="fil0 str0" x="1104.06" y="23453.06" width="3900" height="1000" rx="159.06" ry="170"/>
   <rect class="fil0 str0" x="1104.06" y="24676.93" width="3900" height="1000" rx="159.06" ry="170"/>
   <rect class="fil0 str0" x="1104.06" y="25900.8" width="3900" height="1000" rx="159.06" ry="170"/>
   <rect class="fil0 str0" x="1104.06" y="27124.67" width="3900" height="1000" rx="159.06" ry="170"/>
   <rect class="fil0 str0" x="1104.06" y="28348.54" width="3900" height="1000" rx="159.06" ry="170"/>
   <rect class="fil0 str0" x="1104.06" y="29572.41" width="3900" height="1000" rx="159.06" ry="170"/>
   <rect class="fil0 str0" x="1104.06" y="30796.28" width="3900" height="1000" rx="159.06" ry="170"/>
   <rect class="fil0 str0" x="1104.06" y="32020.15" width="3900" height="1000" rx="159.06" ry="170"/>
   <rect class="fil0 str0" x="1104.06" y="33244.02" width="3900" height="1000" rx="159.06" ry="170"/>
   <rect class="fil0 str0" x="1104.06" y="34467.89" width="3900" height="1000" rx="159.06" ry="170"/>
   <rect class="fil0 str0" x="1104.06" y="35691.76" width="3900" height="1000" rx="159.06" ry="170"/>
   <rect class="fil0 str0" x="1104.06" y="36915.63" width="3900" height="1000" rx="159.06" ry="170"/>
   <rect class="fil0 str0" x="1104.06" y="38139.5" width="3900" height="1000" rx="159.06" ry="170"/>
   <rect class="fil0 str0" x="1104.06" y="39363.37" width="3900" height="1000" rx="159.06" ry="170"/>
   <rect class="fil0 str0" x="1104.06" y="40587.24" width="3900" height="1000" rx="159.06" ry="170"/>
   <rect class="fil0 str0" x="5251.88" y="23453.06" width="3900" height="1000" rx="159.06" ry="170"/>
   <rect class="fil0 str0" x="5251.88" y="24676.93" width="3900" height="1000" rx="159.06" ry="170"/>
   <rect class="fil0 str0" x="5251.88" y="25900.8" width="3900" height="1000" rx="159.06" ry="170"/>
   <rect class="fil0 str0" x="5251.88" y="27124.67" width="3900" height="1000" rx="159.06" ry="170"/>
   <rect class="fil0 str0" x="5251.88" y="28348.54" width="3900" height="1000" rx="159.06" ry="170"/>
   <rect class="fil0 str0" x="5251.88" y="29572.41" width="3900" height="1000" rx="159.06" ry="170"/>
   <rect class="fil0 str0" x="5251.88" y="30796.28" width="3900" height="1000" rx="159.06" ry="170"/>
   <rect class="fil0 str0" x="5251.88" y="32020.15" width="3900" height="1000" rx="159.06" ry="170"/>
   <rect class="fil0 str0" x="5251.88" y="33244.02" width="3900" height="1000" rx="159.06" ry="170"/>
   <rect class="fil0 str0" x="5251.88" y="34467.89" width="3900" height="1000" rx="159.06" ry="170"/>
   <rect class="fil0 str0" x="5251.88" y="35691.76" width="3900" height="1000" rx="159.06" ry="170"/>
   <rect class="fil0 str0" x="5251.88" y="36915.63" width="3900" height="1000" rx="159.06" ry="170"/>
   <rect class="fil0 str0" x="5251.88" y="38139.5" width="3900" height="1000" rx="159.06" ry="170"/>
   <rect class="fil0 str0" x="5251.88" y="39363.37" width="3900" height="1000" rx="159.06" ry="170"/>
   <rect class="fil0 str0" x="5251.88" y="40587.24" width="3900" height="1000" rx="159.06" ry="170"/>
   <rect class="fil0 str0" x="9399.7" y="23453.06" width="3900" height="1000" rx="159.06" ry="170"/>
   <rect class="fil0 str0" x="9399.7" y="24676.93" width="3900" height="1000" rx="159.06" ry="170"/>
   <rect class="fil0 str0" x="9399.7" y="25900.8" width="3900" height="1000" rx="159.06" ry="170"/>
   <rect class="fil0 str0" x="9399.7" y="27124.67" width="3900" height="1000" rx="159.06" ry="170"/>
   <rect class="fil0 str0" x="9399.7" y="28348.54" width="3900" height="1000" rx="159.06" ry="170"/>
   <rect class="fil0 str0" x="9399.7" y="29572.41" width="3900" height="1000" rx="159.06" ry="170"/>
   <rect class="fil0 str0" x="9399.7" y="30796.28" width="3900" height="1000" rx="159.06" ry="170"/>
   <rect class="fil0 str0" x="9399.7" y="32020.15" width="3900" height="1000" rx="159.06" ry="170"/>
   <rect class="fil0 str0" x="9399.7" y="33244.02" width="3900" height="1000" rx="159.06" ry="170"/>
   <rect class="fil0 str0" x="9399.7" y="34467.89" width="3900" height="1000" rx="159.06" ry="170"/>
   <rect class="fil0 str0" x="9399.7" y="35691.76" width="3900" height="1000" rx="159.06" ry="170"/>
   <rect class="fil0 str0" x="9399.7" y="36915.63" width="3900" height="1000" rx="159.06" ry="170"/>
   <rect class="fil0 str0" x="9399.7" y="38139.5" width="3900" height="1000" rx="159.06" ry="170"/>
   <rect class="fil0 str0" x="9399.7" y="39363.37" width="3900" height="1000" rx="159.06" ry="170"/>
   <rect class="fil0 str0" x="9399.7" y="40587.24" width="3900" height="1000" rx="159.06" ry="170"/>
   <rect class="fil0 str0" x="13547.52" y="23453.06" width="3900" height="1000" rx="159.06" ry="170"/>
   <rect class="fil0 str0" x="13547.52" y="24676.93" width="3900" height="1000" rx="159.06" ry="170"/>
   <rect class="fil0 str0" x="13547.52" y="25900.8" width="3900" height="1000" rx="159.06" ry="170"/>
   <rect class="fil0 str0" x="13547.52" y="27124.67" width="3900" height="1000" rx="159.06" ry="170"/>
   <rect class="fil0 str0" x="13547.52" y="28348.54" width="3900" height="1000" rx="159.06" ry="170"/>
   <rect class="fil0 str0" x="13547.52" y="29572.41" width="3900" height="1000" rx="159.06" ry="170"/>
   <rect class="fil0 str0" x="13547.52" y="30796.28" width="3900" height="1000" rx="159.06" ry="170"/>
   <rect class="fil0 str0" x="13547.52" y="32020.15" width="3900" height="1000" rx="159.06" ry="170"/>
   <rect class="fil0 str0" x="13547.52" y="33244.02" width="3900" height="1000" rx="159.06" ry="170"/>
   <rect class="fil0 str0" x="13547.52" y="34467.89" width="3900" height="1000" rx="159.06" ry="170"/>
   <rect class="fil0 str0" x="13547.52" y="35691.76" width="3900" height="1000" rx="159.06" ry="170"/>
   <rect class="fil0 str0" x="13547.52" y="36915.63" width="3900" height="1000" rx="159.06" ry="170"/>
   <rect class="fil0 str0" x="13547.52" y="38139.5" width="3900" height="1000" rx="159.06" ry="170"/>
   <rect class="fil0 str0" x="13547.52" y="39363.37" width="3900" height="1000" rx="159.06" ry="170"/>
   <rect class="fil0 str0" x="13547.52" y="40587.24" width="3900" height="1000" rx="159.06" ry="170"/>
   <rect class="fil0 str0" x="17695.34" y="23453.06" width="3900" height="1000" rx="159.06" ry="170"/>
   <rect class="fil0 str0" x="17695.34" y="24676.93" width="3900" height="1000" rx="159.06" ry="170"/>
   <rect class="fil0 str0" x="17695.34" y="25900.8" width="3900" height="1000" rx="159.06" ry="170"/>
   <rect class="fil0 str0" x="17695.34" y="27124.67" width="3900" height="1000" rx="159.06" ry="170"/>
   <rect class="fil0 str0" x="17695.34" y="28348.54" width="3900" height="1000" rx="159.06" ry="170"/>
   <rect class="fil0 str0" x="17695.34" y="29572.41" width="3900" height="1000" rx="159.06" ry="170"/>
   <rect class="fil0 str0" x="17695.34" y="30796.28" width="3900" height="1000" rx="159.06" ry="170"/>
   <rect class="fil0 str0" x="17695.34" y="32020.15" width="3900" height="1000" rx="159.06" ry="170"/>
   <rect class="fil0 str0" x="17695.34" y="33244.02" width="3900" height="1000" rx="159.06" ry="170"/>
   <rect class="fil0 str0" x="17695.34" y="34467.89" width="3900" height="1000" rx="159.06" ry="170"/>
   <rect class="fil0 str0" x="17695.34" y="35691.76" width="3900" height="1000" rx="159.06" ry="170"/>
   <rect class="fil0 str0" x="17695.34" y="36915.63" width="3900" height="1000" rx="159.06" ry="170"/>
   <rect class="fil0 str0" x="17695.34" y="38139.5" width="3900" height="1000" rx="159.06" ry="170"/>
   <rect class="fil0 str0" x="17695.34" y="39363.37" width="3900" height="1000" rx="159.06" ry="170"/>
   <rect class="fil0 str0" x="17695.34" y="40587.24" width="3900" height="1000" rx="159.06" ry="170"/>
   <rect class="fil0 str0" x="21843.16" y="23453.06" width="3900" height="1000" rx="159.06" ry="170"/>
   <rect class="fil0 str0" x="21843.16" y="24676.93" width="3900" height="1000" rx="159.06" ry="170"/>
   <rect class="fil0 str0" x="21843.16" y="25900.8" width="3900" height="1000" rx="159.06" ry="170"/>
   <rect class="fil0 str0" x="21843.16" y="27124.67" width="3900" height="1000" rx="159.06" ry="170"/>
   <rect class="fil0 str0" x="21843.16" y="28348.54" width="3900" height="1000" rx="159.06" ry="170"/>
   <rect class="fil0 str0" x="21843.16" y="29572.41" width="3900" height="1000" rx="159.06" ry="170"/>
   <rect class="fil0 str0" x="21843.16" y="30796.28" width="3900" height="1000" rx="159.06" ry="170"/>
   <rect class="fil0 str0" x="21843.16" y="32020.15" width="3900" height="1000" rx="159.06" ry="170"/>
   <rect class="fil0 str0" x="21843.16" y="33244.02" width="3900" height="1000" rx="159.06" ry="170"/>
   <rect class="fil0 str0" x="21843.16" y="34467.89" width="3900" height="1000" rx="159.06" ry="170"/>
   <rect class="fil0 str0" x="21843.16" y="35691.76" width="3900" height="1000" rx="159.06" ry="170"/>
   <rect class="fil0 str0" x="21843.16" y="36915.63" width="3900" height="1000" rx="159.06" ry="170"/>
   <rect class="fil0 str0" x="21843.16" y="38139.5" width="3900" height="1000" rx="159.06" ry="170"/>
   <rect class="fil0 str0" x="21843.16" y="39363.37" width="3900" height="1000" rx="159.06" ry="170"/>
   <rect class="fil0 str0" x="21843.16" y="40587.24" width="3900" height="1000" rx="159.06" ry="170"/>
   <rect class="fil0 str0" x="25990.98" y="23453.06" width="3900" height="1000" rx="159.06" ry="170"/>
   <rect class="fil0 str0" x="25990.98" y="24676.93" width="3900" height="1000" rx="159.06" ry="170"/>
   <rect class="fil0 str0" x="25990.98" y="25900.8" width="3900" height="1000" rx="159.06" ry="170"/>
   <rect class="fil0 str0" x="25990.98" y="27124.67" width="3900" height="1000" rx="159.06" ry="170"/>
   <rect class="fil0 str0" x="25990.98" y="28348.54" width="3900" height="1000" rx="159.06" ry="170"/>
   <rect class="fil0 str0" x="25990.98" y="29572.41" width="3900" height="1000" rx="159.06" ry="170"/>
   <rect class="fil0 str0" x="25990.98" y="30796.28" width="3900" height="1000" rx="159.06" ry="170"/>
   <rect class="fil0 str0" x="25990.98" y="32020.15" width="3900" height="1000" rx="159.06" ry="170"/>
   <rect class="fil0 str0" x="25990.98" y="33244.02" width="3900" height="1000" rx="159.06" ry="170"/>
   <rect class="fil0 str0" x="25990.98" y="34467.89" width="3900" height="1000" rx="159.06" ry="170"/>
   <rect class="fil0 str0" x="25990.98" y="35691.76" width="3900" height="1000" rx="159.06" ry="170"/>
   <rect class="fil0 str0" x="25990.98" y="36915.63" width="3900" height="1000" rx="159.06" ry="170"/>
   <rect class="fil0 str0" x="25990.98" y="38139.5" width="3900" height="1000" rx="159.06" ry="170"/>
   <rect class="fil0 str0" x="25990.98" y="39363.37" width="3900" height="1000" rx="159.06" ry="170"/>
   <rect class="fil0 str0" x="25990.98" y="40587.24" width="3900" height="1000" rx="159.06" ry="170"/>
  </g>
 </g>
</svg>
